<?xml version="1.0" encoding="UTF-8" standalone="no"?>
<svg
   xmlns:dc="http://purl.org/dc/elements/1.1/"
   xmlns:cc="http://creativecommons.org/ns#"
   xmlns:rdf="http://www.w3.org/1999/02/22-rdf-syntax-ns#"
   xmlns:svg="http://www.w3.org/2000/svg"
   xmlns="http://www.w3.org/2000/svg"
   xmlns:sodipodi="http://sodipodi.sourceforge.net/DTD/sodipodi-0.dtd"
   xmlns:inkscape="http://www.inkscape.org/namespaces/inkscape"
   id="Layer_1"
   enable-background="new 0 0 493.149 493.149"
   height="36"
   viewBox="0 0 34.674539 34.674539"
   width="36"
   version="1.1"
   sodipodi:docname="mathematics.svg"
   inkscape:version="0.92.3 (2405546, 2018-03-11)">
  <metadata
     id="metadata15">
    <rdf:RDF>
      <cc:Work
         rdf:about="">
        <dc:format>image/svg+xml</dc:format>
        <dc:type
           rdf:resource="http://purl.org/dc/dcmitype/StillImage" />
        <dc:title />
      </cc:Work>
    </rdf:RDF>
  </metadata>
  <defs
     id="defs13" />
  <sodipodi:namedview
     pagecolor="#ffffff"
     bordercolor="#666666"
     borderopacity="1"
     objecttolerance="10"
     gridtolerance="10"
     guidetolerance="10"
     inkscape:pageopacity="0"
     inkscape:pageshadow="2"
     inkscape:window-width="1920"
     inkscape:window-height="1016"
     id="namedview11"
     showgrid="false"
     inkscape:pagecheckerboard="true"
     inkscape:zoom="5.2149125"
     inkscape:cx="355.76914"
     inkscape:cy="237.66436"
     inkscape:window-x="0"
     inkscape:window-y="27"
     inkscape:window-maximized="1"
     inkscape:current-layer="Layer_1" />
  <path
     d="m 263.4722,-207.30217 -24.22936,-19.57901 c -0.75797,-0.61235 -1.88023,-0.0621 -1.88023,0.92498 v 19.57901 c 0,0.6521 0.51912,1.18075 1.15953,1.18075 h 24.22935 c 1.0959,0 1.57859,-1.41253 0.72071,-2.10573 z m -23.79061,-0.25584 v -15.95385 l 19.74328,15.95392 h -19.74328 z"
     id="path2"
     inkscape:connector-curvature="0"
     style="stroke-width:0.07095528;stroke:#ffffff;stroke-opacity:1;fill:#ffffff;fill-opacity:1" />
  <path
     d="m 256.19386,-216.82054 c 2.43922,1.29653 5.42441,-0.50044 5.42441,-3.35336 0,-2.71844 -2.74233,-4.5409 -5.17529,-3.47458 v -4.44309 c 0,-0.63276 -0.50372,-1.14566 -1.125,-1.14566 -0.62128,0 -1.125,0.5129 -1.125,1.14566 v 10.55284 c 0,1.0757 1.33537,1.55882 2.00088,0.71819 z m 1.71169,-4.84293 c 0.80649,0 1.46264,0.66821 1.46264,1.48957 0,0.8213 -0.65615,1.48951 -1.46264,1.48951 -0.80648,0 -1.46264,-0.66821 -1.46264,-1.48951 7e-5,-0.82136 0.65616,-1.48957 1.46264,-1.48957 z"
     id="path4"
     inkscape:connector-curvature="0"
     style="stroke-width:0.07095528;stroke:#ffffff;stroke-opacity:1;fill:#ffffff;fill-opacity:1" />
  <path
     d="M 232.55429,-221.58614 H 231.569 c -0.62128,0 -1.125,0.5129 -1.125,1.14566 0,0.63277 0.50372,1.14566 1.125,1.14566 h 0.98536 c 0.58296,0 1.05729,0.48304 1.05729,1.07671 v 0.35795 c -2.15093,-0.74389 -4.37464,0.89755 -4.37464,3.19411 0,2.46324 2.52802,4.10519 4.72008,3.0524 0.71121,0.69699 1.90449,0.18373 1.90449,-0.82495 v -5.77951 c 0,-1.85712 -1.48367,-3.36803 -3.30729,-3.36803 z m -0.005,8.00188 c -0.58578,0 -1.06229,-0.48526 -1.06229,-1.08179 0,-0.59646 0.47651,-1.08172 1.06229,-1.08172 0.58577,0 1.06228,0.48526 1.06228,1.08172 0,0.59653 -0.47658,1.08179 -1.06228,1.08179 z"
     id="path6"
     inkscape:connector-curvature="0"
     style="stroke-width:0.07095528;stroke:#ffffff;stroke-opacity:1;fill:#ffffff;fill-opacity:1" />
  <path
     d="m 249.87958,-201.58639 c 0.62129,0 1.12501,-0.5129 1.12501,-1.14566 0,-0.63276 -0.50372,-1.14566 -1.12501,-1.14566 -2.52183,0 -4.57348,2.08933 -4.57348,4.65747 0,2.56815 2.05165,4.65755 4.57348,4.65755 0.62129,0 1.12501,-0.5129 1.12501,-1.14566 0,-0.63277 -0.50372,-1.14567 -1.12501,-1.14567 -1.28116,0 -2.32347,-1.06145 -2.32347,-2.36622 -7e-5,-1.30469 1.04224,-2.36615 2.32347,-2.36615 z"
     id="path8"
     inkscape:connector-curvature="0"
     style="stroke-width:0.07095528;stroke:#ffffff;stroke-opacity:1;fill:#ffffff;fill-opacity:1" />
  <text
     xml:space="preserve"
     style="font-style:normal;font-weight:normal;font-size:38.52726746px;line-height:1.25;font-family:sans-serif;letter-spacing:0px;word-spacing:0px;fill:#000000;fill-opacity:1;stroke:none;stroke-width:0.96318161"
     x="273.77121"
     y="-204.96114"
     id="text817"><tspan
       sodipodi:role="line"
       id="tspan815"
       x="273.77121"
       y="-204.96114"
       style="font-style:normal;font-variant:normal;font-weight:normal;font-stretch:normal;font-size:25.68484306px;line-height:2;font-family:Poppins;-inkscape-font-specification:Poppins;fill:#ffffff;fill-opacity:1;stroke-width:0.96318161">PAU sin miedo</tspan></text>
</svg>
